# AST/ASF file generated using VICON BodyLanguage
# -----------------------------------------------
:version 1.10
:name VICON
:units
  mass 1.0
  length 0.45
  angle deg
:documentation
   .ast/.asf automatically generated from VICON data using
   VICON BodyBuilder and BodyLanguage model FoxedUp or BRILLIANT.MOD
:root
   order TX TY TZ RX RY RZ
   axis XYZ
   position 0 0 0  
   orientation 0 0 0 
:bonedata
  begin
     id 1 
     name lhipjoint
     direction 0.561145 -0.797705 0.220866 
     length 2.46425 
     axis 0 0 0  XYZ
  end
  begin
     id 2 
     name lfemur
     direction 0.34202 -0.939693 0  
     length 7.95556  
     axis 0 0 20  XYZ
    dof rx ry rz
    limits (-160.0 20.0)
           (-70.0 70.0)
           (-60.0 70.0)
  end
  begin
     id 3 
     name ltibia
     direction 0.34202 -0.939693 0   
     length 7.9832   
     axis 0 0 20   XYZ
    dof rx
    limits (-10.0 170.0)
  end
  begin
     id 4 
     name lfoot
     direction 0.0723927 -0.198897 0.977343   
     length 2.23085   
     axis -90 7.62852e-016 20   XYZ
    dof rx rz
    limits (-45.0 90.0)
           (-70.0 20.0)
  end
  begin
     id 5 
     name ltoes
     direction 1.53826e-011 -4.21988e-011 1   
     length 1.12127   
     axis -90 7.62852e-016 20   XYZ
    dof rx
    limits (-90.0 20.0)
  end
  begin
     id 6 
     name rhipjoint
     direction -0.610499 -0.763299 0.21134   
     length 2.57533  
     axis 0 0 0  XYZ 
  end
  begin
     id 7 
     name rfemur
     direction -0.34202 -0.939693 0   
     length 8.65257   
     axis 0 0 -20   XYZ
    dof rx ry rz
    limits (-160.0 20.0)
           (-70.0 70.0)
           (-70.0 60.0)
  end
  begin
     id 8 
     name rtibia
     direction -0.342021 -0.939692 0   
     length 7.37807   
     axis 0 0 -20   XYZ
    dof rx
    limits (-10.0 170.0)
 end
 begin
     id 9 
     name rfoot
     direction -0.0239304 -0.0543852 0.998233   
     length 1.87018  
     axis -90 -7.62852e-016 -20   XYZ
    dof rx rz
    limits (-45.0 90.0)
           (-20.0 70.0)
  end
  begin
     id 10 
     name rtoes
     direction -1.53584e-011 -4.2242e-011 1   
     length 0.951568   
     axis -90 -7.62852e-016 -20   XYZ
    dof rx
    limits (-90.0 20.0)
  end
  begin
     id 11 
     name lowerback
     direction 0.00322089 0.999033 0.0438587   
     length 2.07568   
     axis 0 0 0   XYZ
    dof rx ry rz
    limits (-20.0 45.0)
           (-30.0 30.0)
           (-30.0 30.0)
  end
  begin
     id 12 
     name upperback
     direction -0.00321932 0.999732 -0.0229403   
     length 2.06253   
     axis 0 0 0   XYZ
    dof rx ry rz
    limits (-20.0 45.0)
           (-30.0 30.0)
           (-30.0 30.0)
  end
  begin
     id 13 
     name thorax
     direction -0.00537537 0.998955 -0.0453918   
     length 2.06975   
     axis 0 0 0   XYZ
    dof rx ry rz
    limits (-20.0 45.0)
           (-30.0 30.0)
           (-30.0 30.0)
  end
  begin
     id 14 
     name lowerneck
     direction -0.00013604 0.994111 0.108363   
     length 1.50836   
     axis 0 0 0   XYZ
    dof rx ry rz
    limits (-20.0 45.0)
           (-30.0 30.0)
           (-30.0 30.0)
  end
  begin
     id 15 
     name upperneck
     direction 0.0397262 0.983859 -0.174482   
     length 1.53037   
     axis 0 0 0   XYZ
    dof rx ry rz
    limits (-20.0 45.0)
           (-30.0 30.0)
           (-30.0 30.0)
  end
  begin
     id 16
     name head
     direction 0.0109991 0.997082 -0.0755378  
     length 1.56928  
     axis 0 0 0   XYZ
    dof rx ry rz
    limits (-20.0 45.0)
           (-30.0 30.0)
           (-30.0 30.0)
  end
  begin
     id 17 
     name lclavicle
     direction 0.964749 0.254 -0.068874  
     length 3.26503  
     axis 0 0 0   XYZ
    dof ry rz
    limits (-20.0 10.0)
           (0.0 20.0)
  end
  begin
     id 18 
     name lhumerus
     direction 1 -4.48941e-011 -2.05079e-027   
     length 5.68236   
     axis 180 -30 -90   XYZ
    dof rx ry rz
    limits (-60.0 90.0)
           (-90.0 90.0)
           (-90.0 90.0)
  end
  begin
     id 19
     name lradius
     direction 1 -4.48956e-011 6.2882e-027   
     length 3.17112   
     axis 180 -30 -90   XYZ
    dof rx
    limits (-10.0 170.0)
  end
  begin
     id 20
     name lwrist
     direction 1 -4.49014e-011 1.73219e-026   
     length 1.58556   
     axis -1.04724e-014 90 90   XYZ
    dof ry
    limits (-180.0 0.0)
 end
  begin
     id 21 
     name lhand
     direction 1 -4.49312e-011 3.46438e-026   
     length 0.632691   
     axis -2.21057e-014 90 90   XYZ
    dof rx rz
    limits (-90.0 90.0)
           (-45.0 45.0)
  end
  begin
     id 22 
     name lfingers
     direction 1 -4.48894e-011 6.92876e-026   
     length 0.510091   
     axis -4.42114e-014 90 90   XYZ
    dof rx
    limits (0.0 90.0)
  end
  begin
     id 23
     name lthumb
     direction 0.707107 -6.34705e-011 0.707107   
     length 0.732392   
     axis -90 45 2.85299e-015   XYZ
    dof rx rz
    limits (-45.0 45.0)
           (-45.0 45.0)
  end
  begin
     id 24 
     name rclavicle
     direction -0.954374 0.280496 -0.102435   
     length 3.25419  
     axis 0 0 0   XYZ 
    dof ry rz
    limits (-10.0 20.0)
           (-20.0 0.0)
  end
  begin
     id 25 
     name rhumerus
     direction -1 -4.48994e-011 -1.07204e-017  
     length 5.8712   
     axis 180 30 90   XYZ
    dof rx ry rz
    limits (-90.0 60.0)
           (-90.0 90.0)
           (-90.0 90.0)
  end
  begin
     id 26 
     name rradius
     direction -1 -4.48972e-011 5.89292e-027   
     length 3.37589   
     axis 180 30 90   XYZ
    dof rx
    limits (-10.0 170.0)
  end
  begin
     id 27 
     name rwrist
     direction -1 -4.48942e-011 1.73219e-026   
     length 1.68794   
     axis -1.04724e-014 -90 -90   XYZ
    dof ry
    limits (-180.0 0.0)
  end
  begin
     id 28
     name rhand
     direction -1 -4.48514e-011 3.46438e-026   
     length 0.603257   
     axis -2.21057e-014 -90 -90   XYZ
    dof rx rz
    limits (-90.0 90.0)
           (-45.0 45.0)
  end
  begin
     id 29
     name rfingers
     direction -1 -4.50028e-011 6.92876e-026   
     length 0.486362   
     axis -4.42114e-014 -90 -90   XYZ
    dof rx
    limits (0.0 90.0)
  end
  begin
     id 30
     name rthumb
     direction -0.707107 -6.34926e-011 0.707107   
     length 0.698321   
     axis -90 -45 -2.85299e-015   XYZ
    dof rx rz
    limits (-45.0 45.0)
           (-45.0 45.0)
  end
:hierarchy
  begin
    root lhipjoint rhipjoint lowerback
    lhipjoint lfemur
    lfemur ltibia
    ltibia lfoot
    lfoot ltoes
    rhipjoint rfemur
    rfemur rtibia
    rtibia rfoot
    rfoot rtoes
    lowerback upperback
    upperback thorax
    thorax lowerneck lclavicle rclavicle
    lowerneck upperneck
    upperneck head
    lclavicle lhumerus
    lhumerus lradius
    lradius lwrist
    lwrist lhand lthumb
    lhand lfingers
    rclavicle rhumerus
    rhumerus rradius
    rradius rwrist
    rwrist rhand rthumb
    rhand rfingers
  end

#!OML:ASF I:\Segmentation\Patient Classification 1\Patient 1\Session 1\Patient1.ASF
:FULLY-SPECIFIED
:DEGREES
1575
root 3.30166 17.7294 -2.11038 -226.968 -96.3864 -481.512
lowerback -9.05065 -3.13537 -4.60694
upperback 1.16549 -3.74658 1.2397
thorax 6.69577 -2.03671 3.33334
lowerneck -17.3508 1.28894 -1.99259
upperneck 31.2644 2.02928 -0.768399
head 13.4236 0.26963 0.31104
rclavicle -1.02374e-014 1.51076e-014
rhumerus -44.0423 -15.5202 -69.6474
rradius 34.223
rwrist 13.2558
rhand -15.4453 29.8316
rfingers 7.12502
rthumb 10.7353 0.125878
lclavicle -1.02374e-014 1.51076e-014
lhumerus -16.5143 -15.1442 88.7027
lradius 40.4498
lwrist 18.0406
lhand -12.9388 32.8496
lfingers 7.12502
lthumb 13.1522 62.4148
rfemur -45.6566 6.87923 15.0905
rtibia 33.0856
rfoot -4.11128 -0.557955
rtoes 11.4742
lfemur -10.6153 1.50579 -31.9339
ltibia 33.7464
lfoot -19.4187 -11.4982
ltoes -2.88183
1576
root 3.1827 17.7396 -2.10165 -223.916 -96.6529 -484.413
lowerback -9.13863 -3.12353 -4.41178
upperback 1.12242 -3.75189 1.27733
thorax 6.68953 -2.03187 3.25966
lowerneck -17.4363 1.16096 -2.1299
upperneck 31.3234 1.85332 -0.650744
head 13.4655 0.192679 0.353149
rclavicle -2.19657e-014 -1.03368e-014
rhumerus -44.0561 -15.6436 -69.5066
rradius 34.1248
rwrist 13.2975
rhand -15.4614 29.9882
rfingers 7.12502
rthumb 10.7198 0.281646
lclavicle -2.19657e-014 -1.03368e-014
lhumerus -16.9734 -15.0979 89.1517
lradius 39.4158
lwrist 17.8586
lhand -13.1334 32.5851
lfingers 7.12502
lthumb 12.9646 62.1623
rfemur -45.7333 7.1613 14.7193
rtibia 33.3033
rfoot -3.73503 -1.88591
rtoes 16.1082
lfemur -10.3051 1.17252 -31.8747
ltibia 33.6546
lfoot -19.0648 -11.4079
ltoes -3.07402
1577
root 3.06602 17.7444 -2.09235 -220.015 -96.7504 -488.134
lowerback -9.22669 -3.09402 -4.01766
upperback 1.0823 -3.76189 1.39329
thorax 6.67868 -2.02382 3.15606
lowerneck -17.4332 1.05 -2.14617
upperneck 31.1704 1.71746 -0.682324
head 13.4012 0.134768 0.32226
rclavicle -1.92821e-014 -7.95139e-015
rhumerus -43.9904 -15.7257 -69.4016
rradius 33.9583
rwrist 13.3322
rhand -15.5647 29.7409
rfingers 7.12502
rthumb 10.6201 0.0292962
lclavicle -1.92821e-014 -7.95139e-015
lhumerus -17.4472 -14.9349 89.6172
lradius 38.395
lwrist 17.8225
lhand -13.5782 33.0718
lfingers 7.12502
lthumb 12.5358 62.6757
rfemur -45.8331 7.6032 14.4902
rtibia 33.4339
rfoot -3.97063 -3.06206
rtoes 17.4686
lfemur -10.1069 0.912646 -31.5802
ltibia 33.6537
lfoot -18.7187 -11.3405
ltoes -3.4664
1578
root 2.94856 17.7493 -2.08289 -216.318 -96.7888 -491.662
lowerback -9.28836 -3.02687 -3.57988
upperback 1.05334 -3.72915 1.52068
thorax 6.65885 -1.99376 3.04764
lowerneck -17.4872 0.93179 -2.07898
upperneck 30.9367 1.59546 -0.843797
head 13.3179 0.0782841 0.229239
rclavicle 1.47101e-014 2.62396e-014
rhumerus -43.9496 -15.8781 -69.2429
rradius 33.8548
rwrist 13.4509
rhand -15.6321 29.8164
rfingers 7.12502
rthumb 10.5551 0.101423
lclavicle 1.47101e-014 2.62396e-014
lhumerus -17.8738 -14.7927 90.0507
lradius 37.2806
lwrist 17.7693
lhand -13.7783 33.4637
lfingers 7.12502
lthumb 12.3429 63.0794
rfemur -45.8095 7.90696 14.4672
rtibia 33.5295
rfoot -4.32295 -3.63972
rtoes 16.5818
lfemur -9.95931 0.727891 -31.2313
ltibia 33.7779
lfoot -18.3991 -11.3809
ltoes -3.36462
1579
root 2.8297 17.754 -2.07125 -213.047 -96.8248 -494.745
lowerback -9.40491 -2.97808 -3.15621
upperback 1.02954 -3.72056 1.67591
thorax 6.68122 -1.97751 2.96985
lowerneck -17.5149 0.816504 -2.15398
upperneck 30.7173 1.50146 -0.948999
head 13.2332 0.0235379 0.187408
rclavicle -2.98177e-014 2.38542e-015
rhumerus -43.8741 -15.935 -69.0392
rradius 33.7644
rwrist 13.6178
rhand -15.68 30.3176
rfingers 7.12502
rthumb 10.5089 0.600242
lclavicle -2.98177e-014 2.38542e-015
lhumerus -18.2245 -14.4768 90.4355
lradius 36.025
lwrist 17.3815
lhand -13.5103 33.5511
lfingers 7.12502
lthumb 12.6012 63.1511
rfemur -45.7365 7.79589 14.6921
rtibia 33.6781
rfoot -4.46411 -4.13324
rtoes 15.6328
lfemur -9.87168 0.419327 -30.943
ltibia 33.9921
lfoot -18.1959 -11.1726
ltoes -3.95183
1580
root 2.71048 17.7589 -2.05871 -209.571 -96.8639 -498.045
lowerback -9.54646 -2.94503 -2.70868
upperback 1.0028 -3.73969 1.87057
thorax 6.71827 -1.97518 2.91463
lowerneck -17.4072 0.709336 -2.35528
upperneck 30.5236 1.40226 -0.914444
head 13.1281 -0.0312073 0.220354
rclavicle 1.63003e-014 -4.77083e-015
rhumerus -43.8676 -15.8962 -68.8203
rradius 33.7844
rwrist 13.6752
rhand -15.566 30.0375
rfingers 7.12502
rthumb 10.6188 0.325833
lclavicle 1.63003e-014 -4.77083e-015
lhumerus -18.5669 -13.9652 90.8404
lradius 34.6837
lwrist 16.8739
lhand -13.2003 33.5852
lfingers 7.12502
lthumb 12.9001 63.1665
rfemur -45.629 7.49846 15.0424
rtibia 33.9431
rfoot -4.42934 -4.82974
rtoes 15.5383
lfemur -9.79352 0.0717721 -30.6253
ltibia 34.2366
lfoot -17.9793 -10.7435
ltoes -5.5191
1581
root 2.5896 17.763 -2.04639 -206.463 -96.8993 -501.032
lowerback -9.62867 -2.83757 -2.20324
upperback 0.952226 -3.66273 1.97897
thorax 6.67931 -1.92066 2.75461
lowerneck -17.2703 0.591563 -2.44744
upperneck 30.4383 1.22899 -0.829668
head 13.0632 -0.102642 0.241478
rclavicle 5.96354e-016 1.82882e-014
rhumerus -44.0233 -16.0256 -68.5815
rradius 33.7771
rwrist 13.799
rhand -15.5527 29.5999
rfingers 7.12502
rthumb 10.6317 -0.111159
lclavicle 5.96354e-016 1.82882e-014
lhumerus -19.0106 -13.3905 91.1872
lradius 33.3186
lwrist 16.2819
lhand -12.8525 33.3996
lfingers 7.12502
lthumb 13.2354 62.9594
rfemur -45.4677 6.98028 15.5506
rtibia 34.3019
rfoot -3.68171 -5.16833
rtoes 18.2845
lfemur -9.66904 -0.152744 -30.3014
ltibia 34.4857
lfoot -17.5814 -10.5463
ltoes -5.85632
1582
root 2.46835 17.7665 -2.03426 -205.037 -96.9402 -502.383
lowerback -9.59867 -2.70759 -1.84875
upperback 0.87 -3.53418 2.01739
thorax 6.54586 -1.84404 2.6193
lowerneck -17.116 0.47565 -2.50517
upperneck 30.3383 1.05078 -0.756844
head 12.9893 -0.173762 0.251395
rclavicle -1.47101e-014 2.46493e-014
rhumerus -44.0428 -15.9806 -68.4402
rradius 33.4775
rwrist 13.8168
rhand -15.8603 29.8625
rfingers 7.12502
rthumb 10.335 0.136455
lclavicle -1.47101e-014 2.46493e-014
lhumerus -19.6216 -12.6178 91.4933
lradius 32.0769
lwrist 15.6987
lhand -12.6107 33.538
lfingers 7.12502
lthumb 13.4685 63.0825
rfemur -45.3096 6.37062 16.0037
rtibia 34.6919
rfoot -2.58698 -5.04568
rtoes 22.9622
lfemur -9.51239 -0.240142 -30.1441
ltibia 34.7507
lfoot -17.0584 -10.5221
ltoes -5.54927
1583
root 2.34661 17.7769 -2.02558 -204.795 -96.9963 -502.567
lowerback -9.55733 -2.60002 -1.68498
upperback 0.826595 -3.4126 2.05117
thorax 6.46058 -1.77853 2.58443
lowerneck -17.0398 0.389847 -2.56462
upperneck 30.214 0.943643 -0.744836
head 12.9225 -0.221001 0.249955
rclavicle -2.14687e-014 -7.95139e-016
rhumerus -43.8972 -15.9187 -68.3082
rradius 33.1345
rwrist 13.8214
rhand -16.0138 29.9883
rfingers 7.12502
rthumb 10.1869 0.254967
lclavicle -2.14687e-014 -7.95139e-016
lhumerus -20.1485 -11.7658 91.7613
lradius 30.8482
lwrist 15.1716
lhand -12.6322 34.2954
lfingers 7.12502
lthumb 13.4477 63.8413
rfemur -45.1757 5.91269 16.2433
rtibia 35.0811
rfoot -2.12459 -4.69958
rtoes 25.7951
lfemur -9.33732 -0.289555 -30.1023
ltibia 35.0354
lfoot -16.4755 -10.3764
ltoes -5.96929
1584
root 2.22343 17.7871 -2.01942 -204.241 -97.037 -503.03
lowerback -9.67093 -2.49335 -1.52334
upperback 0.872453 -3.29361 2.11064
thorax 6.5605 -1.71692 2.56942
lowerneck -17.0387 0.292888 -2.59604
upperneck 30.0717 0.836132 -0.789631
head 12.865 -0.271538 0.222186
rclavicle -1.74931e-014 -3.97569e-015
rhumerus -43.6438 -16.0409 -68.1065
rradius 32.8614
rwrist 13.9174
rhand -15.8563 29.7202
rfingers 7.12502
rthumb 10.3388 -0.00563971
lclavicle -1.74931e-014 -3.97569e-015
lhumerus -20.5176 -10.9997 91.9532
lradius 29.6703
lwrist 14.7716
lhand -12.6805 35.0264
lfingers 7.12502
lthumb 13.4012 64.5754
rfemur -45.0551 5.3433 16.5944
rtibia 35.4461
rfoot -2.00729 -4.14087
rtoes 25.741
lfemur -9.21176 -0.370598 -29.9996
ltibia 35.3536
lfoot -15.842 -10.1541
ltoes -6.12447
1585
root 2.10185 17.7933 -2.01107 -203.593 -97.0516 -503.591
lowerback -9.76156 -2.40657 -1.3733
upperback 0.908708 -3.20385 2.21429
thorax 6.64281 -1.67097 2.60428
lowerneck -16.9835 0.204155 -2.66986
upperneck 29.8734 0.749397 -0.826221
head 12.7731 -0.315408 0.208501
rclavicle 2.26615e-014 -1.03368e-014
rhumerus -43.3727 -16.1299 -67.8187
rradius 32.5975
rwrist 14.2211
rhand -15.9914 29.9227
rfingers 7.12502
rthumb 10.2085 0.190361
lclavicle 2.26615e-014 -1.03368e-014
lhumerus -20.9859 -10.1631 92.1378
lradius 28.5822
lwrist 14.5598
lhand -12.6913 35.1069
lfingers 7.12502
lthumb 13.3908 64.6565
rfemur -44.8777 4.76826 17.001
rtibia 35.7899
rfoot -1.75536 -3.40333
rtoes 24.6412
lfemur -9.12404 -0.333377 -29.8562
ltibia 35.7107
lfoot -15.0839 -10.0233
ltoes -5.89003
1586
root 1.98142 17.8053 -2.00356 -202.982 -97.0102 -504.135
lowerback -9.75027 -2.27956 -1.15814
upperback 0.877967 -3.06396 2.26304
thorax 6.58633 -1.59544 2.55748
lowerneck -16.9453 0.149072 -2.66928
upperneck 29.7931 0.664036 -0.799825
head 12.7328 -0.345681 0.205853
rclavicle 1.39149e-014 5.56597e-015
rhumerus -43.3106 -16.2998 -67.5514
rradius 32.4527
rwrist 14.5725
rhand -16.1934 30.374
rfingers 7.12502
rthumb 10.0135 0.632227
lclavicle 1.39149e-014 5.56597e-015
lhumerus -21.5972 -9.43142 92.2692
lradius 27.5115
lwrist 14.4274
lhand -12.8832 35.1786
lfingers 7.12502
lthumb 13.2058 64.7403
rfemur -44.6764 4.51019 17.2897
rtibia 36.1258
rfoot -1.47303 -2.82145
rtoes 24.3962
lfemur -9.07188 -0.100377 -29.6558
ltibia 36.1098
lfoot -14.1506 -10.027
ltoes -5.94323
